<svg width="19" height="20" viewBox="0 0 19 20" fill="none" xmlns="http://www.w3.org/2000/svg">
<path d="M8.16609 0.420128C8.45147 0.150328 8.82929 0 9.22201 0C9.61473 0 9.99256 0.150328 10.2779 0.420128L17.7232 7.45806C18.1843 7.89303 18.444 8.50015 18.444 9.13339V17.6945C18.444 18.306 18.2011 18.8924 17.7688 19.3247C17.3364 19.7571 16.75 20 16.1385 20H13.0645C12.7616 20 12.4617 19.9403 12.1819 19.8244C11.9021 19.7084 11.6478 19.5384 11.4337 19.3242C11.2196 19.1099 11.0498 18.8556 10.9341 18.5757C10.8183 18.2958 10.7588 17.9959 10.759 17.693V13.8505C10.759 13.6466 10.678 13.4512 10.5339 13.307C10.3898 13.1629 10.1943 13.082 9.99051 13.082H8.45351C8.24969 13.082 8.05422 13.1629 7.9101 13.307C7.76598 13.4512 7.68501 13.6466 7.68501 13.8505V17.693C7.68501 18.3044 7.44211 18.8908 7.00974 19.3232C6.57738 19.7556 5.99096 19.9985 5.37951 19.9985H2.3055C1.69405 19.9985 1.10763 19.7556 0.675266 19.3232C0.242901 18.8908 0 18.3044 0 17.693V9.13186C0 8.49861 0.26129 7.8915 0.722391 7.45652L8.16609 0.417054V0.420128ZM9.22201 1.53599L1.77677 8.57546C1.70119 8.64712 1.64096 8.73339 1.59974 8.82903C1.55853 8.92468 1.53718 9.02771 1.537 9.13186V17.693C1.537 17.8968 1.61797 18.0923 1.76209 18.2364C1.90621 18.3805 2.10168 18.4615 2.3055 18.4615H5.37951C5.58333 18.4615 5.7788 18.3805 5.92292 18.2364C6.06704 18.0923 6.14801 17.8968 6.14801 17.693V13.8505C6.14801 13.239 6.39091 12.6526 6.82327 12.2202C7.25564 11.7879 7.84205 11.545 8.45351 11.545H9.99051C10.602 11.545 11.1884 11.7879 11.6208 12.2202C12.0531 12.6526 12.296 13.239 12.296 13.8505V17.693C12.296 17.8968 12.377 18.0923 12.5211 18.2364C12.6652 18.3805 12.8607 18.4615 13.0645 18.4615H16.1385C16.3423 18.4615 16.5378 18.3805 16.6819 18.2364C16.8261 18.0923 16.907 17.8968 16.907 17.693V9.13186C16.9071 9.02745 16.8858 8.92413 16.8446 8.8282C16.8034 8.73228 16.743 8.64576 16.6673 8.57392L9.22201 1.53599Z" fill="#0591AF"/>
</svg>
