<svg width="20" height="20" viewBox="0 0 20 20" fill="none" xmlns="http://www.w3.org/2000/svg">
<path d="M5.71429 11.4286C6.09317 11.4286 6.45653 11.2781 6.72444 11.0102C6.99235 10.7422 7.14286 10.3789 7.14286 10C7.14286 9.62112 6.99235 9.25776 6.72444 8.98985C6.45653 8.72194 6.09317 8.57143 5.71429 8.57143C5.33541 8.57143 4.97204 8.72194 4.70413 8.98985C4.43622 9.25776 4.28571 9.62112 4.28571 10C4.28571 10.3789 4.43622 10.7422 4.70413 11.0102C4.97204 11.2781 5.33541 11.4286 5.71429 11.4286ZM10 11.4286C10.3789 11.4286 10.7422 11.2781 11.0102 11.0102C11.2781 10.7422 11.4286 10.3789 11.4286 10C11.4286 9.62112 11.2781 9.25776 11.0102 8.98985C10.7422 8.72194 10.3789 8.57143 10 8.57143C9.62112 8.57143 9.25776 8.72194 8.98985 8.98985C8.72194 9.25776 8.57143 9.62112 8.57143 10C8.57143 10.3789 8.72194 10.7422 8.98985 11.0102C9.25776 11.2781 9.62112 11.4286 10 11.4286ZM15.7143 10C15.7143 10.3789 15.5638 10.7422 15.2959 11.0102C15.028 11.2781 14.6646 11.4286 14.2857 11.4286C13.9068 11.4286 13.5435 11.2781 13.2756 11.0102C13.0077 10.7422 12.8571 10.3789 12.8571 10C12.8571 9.62112 13.0077 9.25776 13.2756 8.98985C13.5435 8.72194 13.9068 8.57143 14.2857 8.57143C14.6646 8.57143 15.028 8.72194 15.2959 8.98985C15.5638 9.25776 15.7143 9.62112 15.7143 10ZM20 10C20 15.5229 15.5229 20 10 20C4.47714 20 0 15.5229 0 10C0 4.47714 4.47714 0 10 0C15.5229 0 20 4.47714 20 10ZM18.5714 10C18.5714 5.26643 14.7336 1.42857 10 1.42857C5.26643 1.42857 1.42857 5.26643 1.42857 10C1.42857 14.7336 5.26643 18.5714 10 18.5714C14.7336 18.5714 18.5714 14.7336 18.5714 10Z" fill="#0591AF"/>
</svg>
