<svg width="29" height="30" viewBox="0 0 29 30" fill="none" xmlns="http://www.w3.org/2000/svg">
<path d="M12.3656 2.76115C14.266 2.75942 16.1242 3.32136 17.7052 4.3759C19.2861 5.43044 20.5188 6.93019 21.2473 8.68542C21.9757 10.4407 22.1672 12.3725 21.7975 14.2366C21.4278 16.1007 20.5136 17.8132 19.1704 19.1576C17.8273 20.502 16.1155 21.4178 14.2518 21.7892C12.388 22.1606 10.456 21.9709 8.70011 21.244C6.94421 20.5172 5.44334 19.2859 4.38736 17.7059C3.33138 16.1259 2.76773 14.2682 2.76773 12.3678C2.77925 9.82503 3.79388 7.38956 5.59109 5.5907C7.3883 3.79185 9.82285 2.775 12.3656 2.76115V2.76115ZM12.3656 0.962646C10.1099 0.962646 7.90482 1.63155 6.02925 2.88476C4.15368 4.13798 2.69185 5.91922 1.82862 8.00324C0.965391 10.0873 0.739531 12.3805 1.1796 14.5928C1.61967 16.8052 2.70591 18.8374 4.30095 20.4325C5.89599 22.0275 7.9282 23.1138 10.1406 23.5538C12.353 23.9939 14.6462 23.768 16.7302 22.9048C18.8142 22.0416 20.5954 20.5797 21.8487 18.7042C23.1019 16.8286 23.7708 14.6235 23.7708 12.3678C23.7708 9.34297 22.5692 6.44202 20.4303 4.30314C18.2914 2.16426 15.3905 0.962646 12.3656 0.962646Z" fill="#515151"/>
<path d="M28.7448 27.5367L22.279 21.027L21.0332 22.264L27.4991 28.7737C27.5803 28.8555 27.6768 28.9205 27.7832 28.965C27.8895 29.0095 28.0036 29.0326 28.1189 29.033C28.2341 29.0334 28.3484 29.0111 28.455 28.9674C28.5617 28.9236 28.6587 28.8593 28.7405 28.7781C28.8223 28.6969 28.8873 28.6003 28.9318 28.494C28.9762 28.3876 28.9994 28.2736 28.9998 28.1583C29.0002 28.043 28.9779 27.9288 28.9341 27.8221C28.8904 27.7155 28.8261 27.6185 28.7448 27.5367Z" fill="#515151"/>
</svg>
