<svg width="20" height="20" viewBox="0 0 20 20" fill="none" xmlns="http://www.w3.org/2000/svg">
<path d="M14.7907 5.20925C14.697 5.11545 14.579 5.04959 14.4499 5.01906C14.3209 4.98853 14.1859 4.99454 14.06 5.0364L7.63144 7.17925C7.52616 7.21436 7.43049 7.27349 7.35201 7.35197C7.27353 7.43044 7.2144 7.52611 7.1793 7.6314L5.03644 14.06C4.99447 14.1858 4.98838 14.3209 5.01885 14.45C5.04932 14.5791 5.11515 14.6972 5.20897 14.791C5.30278 14.8848 5.42086 14.9507 5.54998 14.9811C5.6791 15.0116 5.81416 15.0055 5.94001 14.9635L12.3686 12.8207C12.4739 12.7856 12.5695 12.7264 12.648 12.648C12.7265 12.5695 12.7856 12.4738 12.8207 12.3685L14.9636 5.93997C15.0054 5.81413 15.0114 5.67912 14.9809 5.55007C14.9504 5.42101 14.8845 5.303 14.7907 5.20925V5.20925ZM6.84359 13.1571L8.42216 8.42283L11.5786 11.5793L6.84359 13.1571Z" fill="#0591AF"/>
<path d="M10 20C8.02219 20 6.08879 19.4135 4.4443 18.3147C2.79981 17.2159 1.51809 15.6541 0.761209 13.8268C0.00433283 11.9996 -0.1937 9.98891 0.192152 8.0491C0.578004 6.10929 1.53041 4.32746 2.92894 2.92894C4.32746 1.53041 6.10929 0.578004 8.0491 0.192152C9.98891 -0.1937 11.9996 0.00433283 13.8268 0.761209C15.6541 1.51809 17.2159 2.79981 18.3147 4.4443C19.4135 6.08879 20 8.02219 20 10C19.997 12.6512 18.9424 15.193 17.0677 17.0677C15.193 18.9424 12.6512 19.997 10 20V20ZM10 1.42858C8.30473 1.42858 6.64754 1.93128 5.23797 2.87312C3.82841 3.81496 2.72979 5.15364 2.08104 6.71986C1.43229 8.28608 1.26254 10.0095 1.59327 11.6722C1.924 13.3349 2.74035 14.8622 3.93909 16.0609C5.13782 17.2597 6.66511 18.076 8.3278 18.4067C9.99049 18.7375 11.7139 18.5677 13.2801 17.919C14.8464 17.2702 16.185 16.1716 17.1269 14.762C18.0687 13.3525 18.5714 11.6953 18.5714 10C18.5688 7.72753 17.6649 5.54889 16.058 3.94201C14.4511 2.33513 12.2725 1.43122 10 1.42858V1.42858Z" fill="#0591AF"/>
</svg>
